<?xml version="1.0" standalone="no"?>
<!DOCTYPE svg PUBLIC "-//W3C//DTD SVG 20010904//EN"
 "http://www.w3.org/TR/2001/REC-SVG-20010904/DTD/svg10.dtd">
<svg version="1.0" xmlns="http://www.w3.org/2000/svg"
 width="399.000000pt" height="397.000000pt" viewBox="0 0 399.000000 397.000000"
 preserveAspectRatio="xMidYMid meet">

<g transform="translate(0.000000,397.000000) scale(0.100000,-0.100000)"
fill="#000000" stroke="none">
<path d="M1976 3211 c-3 -5 -16 -7 -28 -3 -14 3 -19 2 -14 -6 4 -7 16 -12 27
-12 10 0 19 -4 19 -10 0 -5 -9 -10 -20 -10 -11 0 -20 5 -20 10 0 6 -7 10 -16
10 -8 0 -13 4 -9 10 3 5 -13 8 -39 7 -24 -1 -42 -5 -39 -9 6 -11 -5 -10 -29 3
-16 8 -19 8 -13 -1 5 -9 2 -10 -13 -6 -11 4 -23 2 -27 -3 -4 -7 1 -9 12 -5 16
5 16 4 -1 -6 -10 -7 -33 -10 -50 -7 -23 4 -39 -1 -57 -15 l-24 -19 25 5 c23 5
23 4 -2 -6 -16 -7 -28 -15 -28 -20 0 -4 -16 -8 -35 -8 -19 0 -35 -5 -35 -11 0
-6 7 -8 16 -5 10 4 13 2 8 -6 -5 -8 -2 -9 9 -5 18 7 21 -1 9 -21 -12 -18 -40
-5 -58 27 -8 14 -13 18 -10 9 4 -15 1 -16 -19 -8 -16 6 -25 6 -25 0 0 -5 14
-13 31 -17 l30 -8 -20 -24 c-12 -14 -21 -18 -21 -11 0 10 -5 9 -18 -3 -22 -20
-35 -22 -29 -4 2 6 0 20 -5 30 -8 16 -10 16 -25 1 -13 -13 -18 -13 -25 -2 -8
10 -9 10 -5 -2 2 -8 11 -15 20 -15 8 0 19 -4 24 -9 5 -5 2 -6 -6 -1 -10 6 -12
2 -6 -14 5 -16 2 -21 -10 -21 -11 0 -15 5 -12 14 8 22 -15 26 -37 7 -18 -15
-19 -15 -13 2 6 16 5 16 -17 1 -14 -8 -27 -21 -29 -28 -3 -7 -19 -16 -37 -19
-17 -4 -29 -11 -25 -17 3 -5 3 -10 -2 -10 -4 0 -8 -14 -9 -31 -1 -35 -9 -44
-44 -54 -24 -7 -24 -7 -5 9 12 9 15 15 7 16 -7 0 -10 4 -7 10 3 6 -1 7 -9 4
-11 -4 -14 -15 -11 -36 4 -20 2 -28 -7 -27 -37 5 -57 -2 -52 -16 4 -10 13 -13
25 -10 11 4 19 2 19 -4 0 -15 18 -14 23 2 2 6 3 4 2 -5 -3 -20 30 -54 39 -40
3 5 -1 15 -9 22 -19 16 -20 50 -1 50 7 0 16 9 19 20 5 20 27 28 27 10 0 -6 10
-5 25 2 13 6 22 16 18 22 -3 6 0 5 8 -1 20 -19 29 -16 29 12 0 24 -1 25 -23
10 -13 -8 -27 -12 -32 -8 -4 5 -5 2 0 -5 5 -10 2 -13 -9 -10 -10 1 -17 6 -17
11 1 4 1 16 1 28 0 15 5 19 15 15 9 -3 18 1 21 9 4 8 13 15 20 15 8 0 19 10
24 23 8 20 9 20 10 2 1 -18 1 -19 11 -2 12 20 39 23 39 5 -1 -28 -25 -44 -60
-42 -19 1 -25 0 -12 -3 12 -2 22 -11 22 -19 0 -8 4 -14 10 -14 6 0 6 -9 0 -25
-6 -17 -6 -26 3 -31 7 -4 9 -4 5 0 -11 12 12 65 26 60 16 -6 17 28 2 38 -7 5
-4 8 7 8 9 0 17 -8 18 -17 1 -12 4 -10 9 7 l8 25 1 -27 c1 -16 -3 -28 -9 -28
-5 0 -10 -10 -10 -22 0 -19 2 -20 10 -8 8 12 10 9 10 -12 0 -28 -17 -33 -46
-15 -7 4 -14 1 -17 -6 -3 -8 -20 -12 -46 -10 -22 1 -43 -2 -46 -8 -4 -5 -15
-9 -26 -9 -20 0 -26 -15 -8 -25 7 -5 4 -15 -6 -32 -10 -14 -13 -23 -7 -19 6 4
8 -3 5 -16 -4 -19 -2 -18 11 6 9 15 14 32 11 36 -3 5 -1 11 5 15 5 3 10 -1 10
-9 0 -14 37 -16 323 -16 227 0 318 -3 307 -11 -11 -7 13 -8 82 -4 78 5 101 4
118 -8 16 -11 18 -16 8 -21 -7 -3 -2 -4 11 -2 14 3 30 1 36 -4 6 -5 27 -5 47
-1 26 6 37 5 35 -3 -1 -6 16 -12 41 -14 23 -2 41 -6 38 -10 -2 -4 16 -7 40 -8
24 0 41 3 38 8 -3 4 -2 8 1 8 9 0 36 -28 35 -35 -3 -14 8 -29 16 -22 5 4 2 12
-6 17 -10 7 -11 10 -2 10 6 0 12 5 12 11 0 5 -4 8 -9 4 -5 -3 -13 0 -16 6 -5
7 0 10 11 7 11 -2 19 -11 19 -20 0 -9 4 -20 8 -25 5 -4 8 -3 7 2 -4 20 0 35
10 35 6 0 9 -12 8 -27 -3 -27 -2 -28 48 -27 38 2 53 -2 61 -16 10 -15 7 -17
-34 -14 -30 1 -41 -1 -32 -7 8 -4 14 -14 14 -21 1 -7 6 -12 12 -11 6 1 23 -9
37 -22 15 -14 30 -25 34 -26 4 0 6 -5 4 -11 -1 -5 2 -7 8 -3 6 3 10 -3 10 -15
0 -11 16 -36 35 -55 20 -20 37 -49 41 -70 8 -43 44 -70 44 -32 0 12 -5 28 -11
34 -9 9 -7 11 9 6 11 -3 23 -11 26 -19 7 -17 -18 -66 -29 -56 -5 4 -5 1 0 -6
5 -10 10 -11 18 -3 15 15 30 14 20 -1 -6 -11 -12 -78 -6 -78 0 0 11 19 22 43
22 46 28 82 11 72 -6 -4 -7 1 -3 11 5 13 3 15 -7 9 -8 -5 -11 -3 -8 6 5 16 46
25 59 12 11 -11 0 -55 -12 -47 -5 3 -9 -9 -9 -26 0 -17 4 -29 9 -26 5 3 12 -6
16 -21 6 -26 -3 -40 -39 -58 -8 -3 -7 -7 2 -11 6 -3 12 -23 12 -44 0 -21 -6
-41 -12 -43 -10 -4 -10 -8 1 -15 11 -8 11 -11 -3 -19 -11 -6 -14 -16 -10 -26
9 -23 20 -21 29 6 7 21 8 20 12 -7 3 -17 -1 -33 -9 -38 -10 -7 -10 -11 0 -15
6 -2 12 -13 12 -23 0 -10 -6 -21 -12 -24 -10 -5 -10 -7 0 -12 25 -12 11 -24
-28 -24 -38 0 -40 2 -40 29 0 17 -4 33 -10 36 -15 9 -12 22 6 29 8 3 12 2 9
-4 -3 -6 -2 -10 3 -10 13 0 24 44 16 64 -9 23 -24 20 -24 -4 0 -11 -4 -20 -10
-20 -5 0 -10 -6 -10 -14 0 -8 -7 -22 -16 -30 -14 -15 -13 -16 8 -16 20 -1 21
-2 5 -11 -9 -5 -23 -7 -30 -3 -9 5 -9 4 1 -7 6 -7 12 -20 12 -29 -1 -13 -3
-12 -14 2 -11 15 -13 12 -15 -29 0 -25 -6 -52 -11 -58 -5 -7 -7 -14 -5 -17 3
-3 -5 -5 -17 -4 -13 1 -26 -3 -30 -9 -14 -19 -8 -25 17 -15 15 6 26 6 30 -1 4
-5 1 -8 -6 -7 -6 2 -14 -3 -16 -10 -3 -8 1 -10 12 -5 15 5 16 3 6 -15 -14 -26
-15 -54 -1 -32 7 11 10 7 10 -18 l0 -32 -26 17 c-21 13 -25 23 -22 50 2 18 1
33 -3 33 -10 0 -20 -30 -14 -40 3 -5 -6 -17 -20 -26 -20 -13 -29 -14 -38 -5
-8 8 -5 11 14 11 15 0 19 3 12 8 -13 8 -2 35 13 32 5 0 11 6 12 16 4 15 1 14
-22 -2 -14 -11 -26 -25 -26 -31 0 -7 -6 -13 -14 -13 -22 0 -30 -19 -16 -35 10
-11 10 -15 1 -15 -7 0 -9 -5 -5 -11 4 -7 1 -10 -7 -7 -8 3 -14 12 -14 21 0 23
-11 29 -12 7 -1 -11 8 -27 20 -35 12 -8 17 -15 12 -15 -5 0 4 -13 19 -29 15
-16 27 -32 26 -36 -1 -4 2 -10 6 -13 4 -4 4 -2 0 5 -3 6 4 19 16 28 l23 17
-23 -7 c-36 -10 -75 45 -39 58 9 3 7 9 -5 24 -27 30 -21 40 7 13 14 -13 25
-19 25 -13 0 14 49 23 57 10 3 -6 -4 -19 -17 -29 -17 -14 -26 -16 -36 -7 -8 6
-14 7 -14 3 0 -16 37 -33 58 -27 24 6 46 -12 57 -46 6 -20 4 -23 -9 -18 -11 5
-16 1 -16 -12 0 -11 4 -21 10 -23 5 -1 11 -23 13 -48 l3 -44 51 0 c43 1 50 -1
46 -17 -3 -11 2 -19 16 -24 17 -5 21 -14 21 -51 0 -24 -4 -44 -10 -44 -5 0
-10 -8 -10 -18 0 -10 -6 -24 -12 -31 -10 -11 -10 -13 0 -7 6 4 12 3 12 -2 0
-6 10 -8 22 -4 21 5 21 6 3 12 -17 6 -15 8 9 14 39 10 46 -2 17 -26 l-25 -19
27 6 c17 5 27 3 27 -4 0 -6 -4 -11 -10 -11 -5 0 -10 -7 -10 -15 0 -21 -13 -19
-28 6 -12 19 -15 19 -30 6 -9 -8 -24 -12 -32 -9 -8 2 -4 -5 9 -17 13 -11 30
-21 38 -21 19 0 43 -25 43 -44 0 -10 6 -13 15 -10 21 9 8 -24 -15 -36 -22 -12
-60 -2 -60 16 0 16 16 19 25 4 3 -6 12 -10 18 -9 9 0 9 2 0 6 -7 2 -13 11 -13
19 0 8 -6 11 -15 8 -8 -4 -15 -1 -15 5 0 6 -7 11 -16 11 -9 0 -12 5 -8 12 4 6
3 8 -4 4 -6 -3 -13 2 -16 12 -7 20 -39 22 -73 4 -15 -8 -94 -12 -252 -12 -227
0 -231 0 -231 -21 0 -19 -1 -19 -16 -4 -9 8 -13 22 -10 31 3 8 2 13 -3 10 -5
-3 -11 4 -14 15 -3 12 -10 18 -15 15 -6 -3 -13 1 -16 9 -3 8 -9 15 -13 14 -19
-3 -33 2 -33 12 0 5 4 7 10 4 5 -3 7 0 4 9 -3 8 -12 12 -20 9 -10 -4 -12 0 -8
13 6 17 5 17 -9 -1 -14 -17 -18 -18 -26 -6 -5 8 -7 21 -4 29 5 11 0 10 -21 -4
-49 -31 -110 -22 -64 10 17 12 25 13 36 4 17 -15 34 8 26 36 -4 12 -2 16 5 12
17 -11 13 0 -6 15 -9 8 -14 9 -10 3 4 -6 -2 -19 -12 -28 -11 -10 -22 -13 -25
-8 -3 6 -1 12 6 14 7 3 13 16 13 31 1 14 -2 24 -6 21 -4 -2 -10 0 -14 6 -4 6
-11 8 -16 5 -5 -4 -9 3 -9 14 0 10 3 21 8 24 4 2 2 2 -5 1 -6 -2 -14 0 -16 4
-2 4 -2 1 -1 -5 2 -7 0 -13 -5 -13 -5 0 -11 14 -13 30 -3 17 0 30 5 30 5 0 7
6 5 13 -3 6 -11 12 -19 12 -8 0 -15 6 -15 13 -1 6 -2 16 -3 20 0 4 -11 8 -23
9 -22 2 -22 1 2 -13 23 -14 23 -14 3 -9 -18 5 -22 3 -17 -10 4 -9 9 -14 12
-11 14 14 39 -15 37 -44 -1 -17 2 -33 7 -36 4 -3 8 -16 8 -30 0 -14 4 -22 10
-19 18 11 31 -5 20 -25 -7 -13 -6 -20 1 -22 17 -6 1 -48 -18 -48 -10 0 -13 -6
-9 -16 3 -8 2 -12 -3 -9 -5 3 -12 1 -16 -5 -3 -5 -16 -10 -29 -10 -12 0 -26
-3 -29 -7 -7 -7 22 -32 37 -33 6 0 1 6 -10 14 -19 15 -19 15 2 13 32 -2 26
-49 -8 -58 -15 -4 -29 -5 -31 -3 -2 3 -10 -3 -17 -11 -7 -9 -9 -15 -4 -14 27
5 33 -2 14 -21 -26 -26 -48 -25 -55 3 l-6 22 -256 0 c-162 0 -258 4 -260 10
-2 7 83 9 244 7 169 -2 245 0 238 7 -7 7 -105 11 -263 11 -154 1 -254 5 -258
11 -3 6 -12 5 -22 -3 -15 -12 -16 -11 -2 6 20 25 21 46 3 46 -13 0 -13 -3 -3
-15 11 -13 10 -14 -4 -9 -9 3 -16 1 -16 -5 0 -6 -7 -11 -16 -11 -11 0 -14 8
-12 33 2 22 7 31 18 29 55 -13 50 -79 50 729 0 650 -2 739 -15 739 -8 0 -15
-8 -15 -17 0 -16 2 -16 11 -3 8 12 10 12 7 1 -6 -20 -47 -24 -54 -6 -4 8 -15
15 -25 15 -10 0 -19 5 -19 10 0 6 -6 10 -14 10 -20 0 -26 12 -19 38 5 19 8 20
21 10 14 -12 14 -10 1 10 l-14 23 -9 -25 c-6 -14 -17 -26 -25 -26 -12 0 -12
-3 -3 -12 7 -7 12 -17 12 -22 0 -6 -4 -5 -9 3 -7 11 -11 9 -21 -9 -13 -24 -25
-78 -15 -68 4 3 8 12 9 20 7 31 18 44 40 46 13 1 27 -5 30 -13 3 -8 2 -14 -2
-13 -13 2 -42 -14 -42 -24 0 -5 5 -6 10 -3 6 3 10 0 10 -8 0 -16 -27 -30 -41
-21 -5 3 -9 0 -9 -7 0 -10 -3 -10 -12 -1 -16 16 -33 16 -20 0 5 -7 13 -28 17
-45 5 -26 3 -33 -9 -33 -9 0 -16 -4 -16 -9 0 -5 -8 -11 -17 -13 -13 -4 -18 2
-19 19 -1 15 2 20 10 16 6 -4 5 1 -2 10 -15 18 -8 37 14 37 8 0 14 5 14 10 0
24 -49 -7 -51 -33 -1 -7 -2 -16 -4 -22 -1 -5 -3 -14 -4 -20 -1 -5 -6 -3 -11 5
-5 8 -10 11 -11 5 -3 -32 -10 -50 -30 -71 -12 -13 -19 -24 -15 -24 5 0 3 -6
-3 -13 -8 -10 -7 -14 4 -14 8 0 12 4 9 9 -3 4 0 8 6 8 7 0 14 -9 17 -20 3 -11
9 -20 14 -20 14 0 10 29 -7 55 -10 15 -12 25 -5 25 6 0 11 6 11 14 0 7 7 19
15 26 18 15 18 10 5 -25 -8 -22 -6 -30 15 -53 14 -15 25 -32 25 -39 0 -18 -21
-27 -30 -13 -10 17 -20 -12 -13 -39 3 -14 0 -23 -11 -27 -17 -7 -22 -44 -6
-44 18 0 11 -19 -11 -31 -18 -9 -20 -8 -15 9 4 11 2 23 -4 27 -5 3 -10 15 -10
26 0 10 -4 19 -9 19 -5 0 -7 9 -4 20 3 11 10 20 15 20 5 0 6 -5 2 -12 -4 -7
-3 -8 4 -4 17 10 15 26 -3 26 -8 0 -15 5 -15 11 0 5 5 7 10 4 6 -3 10 -1 10 4
0 6 -4 11 -9 11 -16 0 -32 -29 -37 -66 -3 -21 -8 -41 -13 -44 -11 -7 -10 -41
1 -34 5 3 6 9 4 13 -3 4 4 12 15 19 11 7 19 8 19 2 0 -5 -3 -10 -7 -10 -5 0
-8 -15 -9 -33 l0 -32 10 28 c5 15 13 27 17 27 4 0 2 -13 -4 -30 -6 -16 -17
-30 -25 -30 -28 0 -42 -28 -42 -84 0 -31 -4 -56 -10 -56 -5 0 -10 -5 -10 -11
0 -5 4 -7 10 -4 18 11 11 -37 -8 -54 -13 -12 -16 -24 -11 -51 5 -30 7 -31 8
-8 0 15 5 29 9 32 5 3 9 -40 9 -94 0 -55 -3 -97 -8 -94 -5 3 -9 -11 -9 -30 0
-19 5 -38 10 -41 6 -3 10 -17 10 -31 0 -14 -4 -23 -8 -20 -5 3 -6 -8 -4 -25 2
-16 8 -32 13 -35 5 -3 9 -14 9 -25 0 -10 4 -19 10 -19 5 0 6 -7 3 -17 -5 -12
-3 -14 8 -7 8 5 21 9 29 9 8 0 21 4 28 8 8 6 12 2 12 -12 0 -12 5 -21 10 -21
6 0 10 6 10 14 0 16 27 29 41 20 5 -3 9 -11 9 -17 0 -7 -4 -6 -10 3 -5 8 -12
11 -17 7 -4 -4 -1 -18 6 -30 10 -15 10 -22 2 -25 -6 -2 -11 -8 -11 -13 0 -6 5
-7 10 -4 19 12 23 -26 5 -45 -11 -12 -13 -20 -7 -20 7 0 12 -8 12 -19 0 -31
-24 -78 -37 -74 -7 3 -13 -3 -13 -12 0 -9 4 -13 10 -10 5 3 10 0 10 -8 0 -8 8
-14 17 -13 11 0 17 -6 17 -16 -1 -10 2 -18 7 -18 5 0 9 -5 9 -11 0 -5 -5 -7
-10 -4 -6 3 -1 -10 11 -29 25 -43 32 -44 48 -8 l12 27 -21 -25 -20 -25 3 25
c1 18 -2 24 -13 22 -8 -2 -11 0 -7 4 13 13 67 14 67 1 0 -9 2 -9 8 0 4 7 19
14 32 16 l25 4 3 636 2 637 -27 0 c-16 0 -36 7 -47 15 -17 13 -17 18 -6 45 16
39 28 38 32 -2 3 -29 28 -54 28 -28 0 6 -4 8 -10 5 -5 -3 -10 0 -10 8 0 8 9
17 20 20 23 6 27 35 5 43 -29 12 -10 44 26 44 5 0 9 -291 9 -725 0 -573 -3
-725 -12 -726 -7 -1 -20 -2 -29 -3 -26 -2 -68 -38 -62 -53 4 -11 9 -9 20 7 11
15 21 18 40 14 19 -5 24 -4 18 6 -5 8 -2 11 11 8 11 -2 18 -11 16 -20 -1 -8 5
-21 13 -28 10 -9 15 -9 15 -1 0 6 7 11 16 11 8 0 12 -5 9 -11 -4 -6 2 -5 14 3
16 10 23 10 32 1 10 -10 6 -14 -13 -22 -14 -5 -28 -16 -31 -24 -3 -8 -17 -13
-36 -12 -24 1 -28 -1 -20 -11 8 -10 5 -12 -13 -10 -13 1 -30 6 -38 11 -13 7
-13 6 -2 -7 8 -10 20 -14 29 -11 12 5 15 2 10 -10 -6 -17 3 -22 32 -17 11 1
12 -1 4 -12 -9 -10 -8 -18 3 -32 8 -11 14 -16 14 -11 0 5 6 1 13 -9 12 -16 13
-16 14 4 1 11 -2 18 -8 15 -5 -4 -9 -1 -9 5 0 6 -5 8 -11 4 -7 -4 -10 -1 -7 7
3 8 10 13 16 12 7 -2 9 4 5 14 -5 12 -3 14 7 8 10 -6 12 -4 7 9 -6 14 -3 17 9
12 12 -4 15 -2 10 9 -6 16 26 39 38 27 4 -3 112 -7 241 -7 128 0 237 -4 241
-8 4 -4 -96 -7 -223 -7 l-230 0 -37 -34 c-41 -40 -46 -70 -13 -97 l22 -19 -27
10 c-37 13 -36 4 2 -15 27 -14 34 -13 32 7 -1 3 12 1 28 -5 17 -6 30 -14 30
-18 0 -10 -34 -5 -42 6 -5 6 -8 6 -8 -1 0 -17 27 -36 56 -40 20 -2 24 0 15 9
-22 22 -12 35 24 30 20 -3 41 0 48 5 19 16 126 10 137 -8 16 -26 12 -44 -5
-26 -9 8 -22 13 -29 10 -7 -3 -16 2 -19 10 -4 9 -11 16 -18 16 -6 0 -9 -7 -6
-15 7 -17 -9 -30 -18 -15 -11 19 -73 8 -95 -17 -11 -13 -18 -28 -15 -33 9 -15
25 -12 25 4 0 7 8 16 18 20 9 3 23 9 30 12 8 4 12 -3 12 -21 0 -23 -3 -25 -22
-20 -16 4 -19 3 -9 -3 10 -7 10 -11 1 -14 -7 -2 -1 -9 14 -16 15 -7 26 -8 26
-2 0 6 5 10 10 10 6 0 10 -8 8 -17 -2 -15 4 -18 32 -16 19 1 29 0 23 -3 -20
-9 -15 -23 7 -21 18 1 18 3 6 22 -8 11 -21 19 -30 17 -19 -3 -22 14 -3 21 6 2
-7 4 -30 3 -37 -2 -41 0 -31 13 41 55 71 76 67 49 -1 -7 -1 -22 0 -33 2 -19 3
-19 15 -3 7 10 17 14 21 10 5 -4 4 -1 0 7 -6 11 -4 13 9 8 13 -5 19 -1 23 13
3 11 9 20 14 20 15 0 10 -27 -11 -65 -18 -32 -18 -35 -2 -36 14 0 14 -2 -3 -9
-19 -8 -19 -9 3 -9 28 -1 29 -21 1 -28 -16 -4 -17 -8 -7 -14 17 -11 31 -11 24
0 -6 8 15 21 35 21 17 0 9 -20 -8 -21 -14 0 -15 -2 -3 -6 8 -3 21 -11 29 -16
14 -12 21 -14 96 -25 28 -5 59 -13 71 -19 14 -8 25 -8 35 -1 11 8 11 9 -3 4
-22 -7 -35 13 -17 25 11 7 11 9 1 9 -9 0 -11 7 -7 20 5 16 3 19 -12 14 -54
-18 -72 -27 -67 -36 4 -7 -6 -7 -27 -3 -19 4 -35 11 -37 16 -2 4 -11 6 -20 3
-15 -5 -15 -4 1 9 13 11 15 16 5 19 -7 3 2 5 20 5 17 0 32 -4 32 -9 0 -12 32
-6 45 8 12 12 135 7 135 -6 0 -5 -8 -10 -17 -13 -17 -4 -17 -4 -1 -11 18 -8
53 16 41 28 -4 3 9 6 28 5 32 -1 32 -2 9 -9 -24 -8 -23 -8 8 -9 42 -1 35 -16
-9 -19 -45 -4 -52 -13 -9 -12 19 1 54 -3 77 -8 31 -7 46 -6 53 3 6 7 34 11 75
10 68 -2 105 -15 42 -15 -20 0 -37 -5 -37 -10 0 -15 -54 -34 -58 -21 -2 6 -28
11 -58 11 -34 0 -53 4 -49 10 8 12 -5 13 -23 1 -18 -11 17 -21 78 -21 33 0 41
-3 30 -10 -11 -7 -6 -10 20 -10 20 0 45 7 57 15 16 11 34 14 64 9 39 -7 41 -6
30 14 -8 16 -7 21 4 26 20 7 19 26 -1 26 -9 0 -14 6 -11 13 3 11 12 12 48 8 6
0 8 -10 4 -21 -5 -14 -2 -20 9 -20 9 0 16 -5 16 -12 0 -9 3 -9 12 0 17 17 39
15 32 -2 -4 -11 0 -13 15 -9 12 3 21 12 21 20 0 8 5 11 12 7 19 -12 56 -11 81
3 l22 12 -22 1 c-13 0 -23 -5 -23 -11 0 -5 -5 -7 -11 -3 -19 12 7 26 50 28 29
0 43 6 47 18 3 9 13 19 22 21 12 3 11 5 -5 6 -27 1 -30 16 -7 29 14 8 14 10 0
21 -9 8 -16 17 -16 22 0 15 27 10 34 -6 3 -8 13 -15 23 -15 15 0 16 -2 3 -10
-13 -8 -12 -10 4 -10 12 0 16 5 12 16 -3 8 -2 23 3 33 7 13 5 17 -10 18 -11 1
-17 -2 -14 -8 9 -14 -18 -10 -39 6 -20 15 -14 35 10 35 9 0 12 -5 8 -11 -5 -8
-1 -8 13 0 11 6 23 7 27 4 4 -4 23 -6 43 -5 l36 3 -24 -20 c-24 -20 -24 -20
-2 -21 13 0 24 8 28 20 9 29 23 16 20 -20 -1 -16 1 -27 6 -24 5 3 6 10 3 16
-5 7 2 9 20 6 14 -3 26 -1 26 3 0 5 -12 10 -27 10 -24 2 -25 2 -5 6 12 2 19 9
16 15 -4 6 2 5 15 -2 12 -6 18 -16 15 -22 -4 -6 -3 -8 4 -5 5 4 9 18 7 32 -1
16 3 25 12 25 8 0 11 -4 8 -10 -3 -6 -1 -10 5 -10 7 0 9 7 6 15 -3 9 1 18 9
21 8 4 15 12 15 20 0 10 -6 8 -20 -6 -17 -17 -23 -18 -40 -8 -17 10 -18 14 -5
16 14 3 19 15 16 35 0 4 4 7 10 7 7 0 9 -10 5 -26 -5 -17 -3 -23 4 -19 5 3 10
15 10 26 0 10 7 19 15 19 8 0 14 -3 14 -8 -1 -4 -1 -18 0 -31 l1 -25 28 27
c16 15 32 24 36 20 4 -4 4 1 0 12 -6 14 -4 17 7 13 10 -4 15 1 16 14 2 19 1
19 -18 3 -22 -20 -25 -14 -7 14 8 14 17 17 28 11 12 -7 16 -3 17 18 0 15 -1
19 -4 9 -2 -9 -8 -17 -13 -17 -4 0 -6 9 -3 21 4 12 11 18 20 15 8 -3 16 -6 19
-6 2 0 1 -8 -2 -18 -3 -9 5 0 17 21 13 21 29 35 36 33 7 -3 15 0 19 6 4 7 3 8
-4 4 -7 -4 -12 -3 -12 2 0 6 7 12 15 16 8 3 20 17 27 31 6 14 17 25 25 25 7 0
13 8 13 18 0 11 9 27 20 37 13 12 18 25 14 37 -3 10 0 25 6 33 7 8 10 15 6 15
-9 0 -48 -23 -64 -37 -7 -7 -18 -13 -23 -13 -5 0 -9 -14 -9 -32 0 -30 -1 -31
-17 -15 -16 15 -15 18 2 37 16 18 17 23 5 30 -12 7 -12 12 3 28 9 10 17 24 17
31 0 8 5 9 19 1 14 -7 21 -6 24 3 2 6 7 9 11 6 4 -4 -3 -16 -15 -28 -13 -12
-17 -21 -11 -21 7 0 22 11 34 25 l22 26 8 -22 c5 -12 11 -19 14 -16 11 11 12
62 1 75 -13 16 10 35 31 27 8 -3 19 9 28 30 17 41 17 48 4 40 -5 -3 -10 -15
-10 -26 0 -11 -4 -18 -9 -15 -5 3 -7 15 -4 25 3 10 -1 22 -8 27 -8 5 -11 3 -7
-7 4 -10 -1 -15 -13 -16 -25 -2 -25 28 -1 46 12 9 17 21 14 37 -3 19 0 24 17
24 31 0 26 17 -8 23 -16 3 -31 13 -34 22 -8 18 2 75 13 75 11 0 20 -39 10 -45
-4 -3 -6 -14 -3 -25 10 -36 21 -11 21 45 0 30 -5 52 -9 49 -5 -3 -9 2 -9 11 0
9 -4 14 -9 10 -12 -7 -26 59 -16 75 3 5 11 8 16 5 5 -4 9 -1 9 6 0 9 3 10 11
2 5 -5 10 -29 11 -52 0 -22 4 -41 9 -41 5 0 9 -24 9 -54 0 -32 5 -58 13 -64
10 -9 13 -5 11 18 -1 17 2 27 7 24 5 -3 9 -15 10 -27 0 -12 3 -16 6 -9 3 7 -1
27 -8 44 -14 33 -19 82 -8 70 4 -4 9 -18 11 -32 l4 -25 5 28 c8 34 -21 73 -39
55 -9 -9 -12 -4 -12 19 0 18 -5 35 -10 38 -6 3 -7 17 -4 31 3 13 3 46 -1 72
-6 39 -9 43 -15 26 -16 -41 -31 -38 -29 5 2 23 7 41 11 41 4 0 8 -5 8 -12 0
-9 3 -9 12 0 9 9 8 18 -2 37 -9 17 -11 29 -4 33 6 4 12 31 13 60 1 29 7 66 11
84 6 19 6 37 0 47 -8 13 -9 11 -7 -8 1 -14 -4 -26 -13 -29 -8 -3 -12 -1 -8 3
4 5 3 14 -4 22 -8 10 -7 17 4 26 23 18 27 41 12 62 -8 10 -14 13 -14 7 0 -7
-4 -12 -8 -12 -5 0 -8 15 -8 34 1 19 4 32 8 29 5 -2 8 1 8 6 0 6 -7 11 -15 11
-8 0 -15 -4 -15 -10 0 -5 -4 -10 -10 -10 -6 0 -6 9 0 25 9 24 4 55 -9 55 -4 0
-16 -7 -28 -15 -19 -13 -21 -13 -16 3 3 15 -2 17 -43 13 -38 -3 -46 -1 -41 12
3 8 0 20 -6 26 -8 8 -8 14 2 24 10 10 14 9 21 -3 23 -39 36 -51 53 -44 9 3 14
11 10 17 -3 6 -1 7 5 3 7 -4 12 -2 12 3 0 6 -6 11 -13 11 -8 0 -22 9 -32 20
-16 17 -16 20 -2 20 9 0 19 -4 22 -10 3 -5 16 -15 28 -21 16 -8 14 -3 -8 16
-16 15 -28 34 -27 43 3 12 -2 10 -17 -6 -12 -14 -25 -21 -32 -16 -8 4 -9 3 -5
-4 4 -7 3 -12 -3 -12 -14 0 -8 53 7 58 16 5 16 -15 0 -21 -8 -3 -8 -6 -2 -6 6
-1 19 8 29 19 15 17 16 20 3 15 -11 -4 -16 -1 -15 11 1 9 -6 18 -16 20 -14 2
-18 -2 -14 -17 3 -10 1 -19 -4 -19 -5 0 -9 5 -9 11 0 7 -10 9 -24 5 -36 -9
-40 9 -8 31 29 20 42 46 17 37 -23 -9 -47 16 -41 41 6 23 -24 61 -37 48 -4 -3
-7 1 -7 10 0 10 -5 17 -11 17 -5 0 -8 -4 -4 -9 3 -5 1 -12 -4 -16 -14 -8 -2
-35 16 -35 8 0 11 5 7 11 -4 7 1 10 11 7 26 -4 31 -28 7 -28 -11 0 -25 -7 -32
-15 -10 -12 -10 -15 4 -15 9 0 15 -6 13 -12 -1 -7 3 -12 9 -11 7 1 14 -7 17
-17 4 -15 0 -20 -16 -20 -36 0 -47 13 -44 53 2 26 -2 42 -15 54 -23 20 -23 33
-1 33 15 0 14 2 -3 16 -16 13 -16 15 -2 10 21 -6 33 10 16 21 -15 9 -42 14
-34 6 3 -3 1 -14 -5 -25 -8 -15 -13 -17 -24 -8 -15 12 -39 5 -30 -9 2 -5 -16
-9 -40 -9 -25 -1 -45 3 -45 8 0 6 6 10 14 10 7 0 16 9 19 20 3 11 1 18 -4 14
-5 -3 -9 0 -9 6 0 6 -4 8 -10 5 -5 -3 -10 0 -10 8 0 21 12 28 26 16 7 -6 29
-19 49 -29 28 -14 35 -15 35 -4 0 8 -4 14 -10 14 -5 0 -10 4 -10 10 0 5 6 8
13 6 6 -1 9 -1 4 1 -4 3 -5 9 -1 14 3 5 0 9 -5 9 -6 0 -11 -5 -11 -11 0 -6 -8
-8 -17 -6 -10 3 -31 8 -46 11 -22 5 -28 12 -25 29 2 12 9 21 16 19 8 -1 11 2
7 8 -3 6 -10 8 -15 5 -5 -3 -21 -3 -35 1 -20 5 -23 9 -15 19 9 10 6 16 -9 24
-30 16 -55 13 -81 -9 -13 -11 -19 -20 -15 -20 5 0 0 -7 -11 -15 -15 -11 -21
-11 -29 -2 -13 16 -75 22 -75 8 0 -6 -4 -11 -10 -11 -23 0 -7 20 23 29 l32 9
-33 1 c-35 1 -36 21 -1 21 13 0 19 7 19 21 0 17 -3 19 -13 11 -9 -8 -24 -8
-50 -1 -42 11 -51 24 -12 17 14 -3 25 -1 25 3 0 5 -11 9 -25 9 -25 0 -33 14
-15 25 21 13 -2 23 -30 13 -34 -11 -99 9 -77 25 7 5 -3 5 -22 2 -18 -4 -31 -3
-28 2 3 4 -13 6 -36 4 l-42 -5 44 -8 c72 -13 70 -15 -11 -16 -48 -1 -78 3 -78
9 0 6 9 7 21 4 14 -5 19 -3 15 4 -16 25 -167 43 -180 22z m39 -11 c-3 -5 -13
-10 -21 -10 -8 0 -14 5 -14 10 0 6 9 10 21 10 11 0 17 -4 14 -10z m72 -8 c-9
-2 -15 -7 -12 -12 7 -12 -17 -18 -40 -10 -18 7 -18 8 8 15 15 4 27 11 27 16 0
5 8 5 18 1 16 -6 16 -7 -1 -10z m-217 -15 c-19 -8 -39 -10 -44 -6 -5 4 -16 5
-25 2 -10 -3 -12 -2 -4 4 6 4 33 9 60 10 l48 2 -35 -12z m-196 -71 c-3 -9 -12
-12 -22 -9 -15 6 -9 11 25 22 1 1 0 -5 -3 -13z m733 -28 c-3 -8 -6 -5 -6 6 -1
11 2 17 5 13 3 -3 4 -12 1 -19z m-824 -52 c20 -6 21 -7 4 -17 -24 -14 -37 -3
-36 29 1 15 3 20 6 11 2 -10 14 -20 26 -23z m1087 24 c13 -8 13 -10 -2 -10
-12 0 -16 -5 -12 -17 4 -11 2 -14 -3 -8 -12 15 -33 17 -30 3 3 -17 -25 -17
-31 0 -2 7 9 15 27 18 17 4 28 10 25 15 -7 12 7 11 26 -1z m-250 -20 c0 -11
-4 -20 -10 -20 -5 0 -10 9 -10 20 0 11 5 20 10 20 6 0 10 -9 10 -20z m-173
-185 c5 -18 -13 -35 -38 -35 -71 0 -109 4 -109 11 0 5 21 8 46 7 34 0 49 4 56
16 10 18 39 18 45 1z m-144 -7 c-13 -6 -23 -14 -23 -18 0 -17 56 -31 114 -30
43 1 60 -14 45 -41 -10 -20 -49 -21 -49 -2 0 17 17 17 23 1 2 -7 8 -10 12 -5
12 11 -1 19 -37 23 -21 3 -28 1 -19 -5 9 -6 10 -11 2 -15 -6 -4 -13 -1 -16 6
-3 7 -19 14 -37 15 -17 0 -35 8 -40 17 -7 13 -26 16 -87 16 -78 0 -78 0 -73
25 4 25 5 25 106 24 80 0 96 -3 79 -11z m790 -133 c-3 -10 1 -15 12 -15 10 0
13 5 9 12 -4 7 -3 8 5 4 6 -4 9 -12 6 -17 -8 -12 -42 -12 -49 0 -8 13 4 42 15
36 4 -3 6 -12 2 -20z m-221 -14 c4 -1 10 -10 13 -21 3 -11 14 -20 23 -20 13
-1 10 -5 -8 -16 -21 -13 -22 -14 -4 -9 20 5 22 1 26 -42 2 -26 0 -58 -5 -70
-7 -16 -6 -27 3 -38 12 -14 11 -18 -1 -26 -8 -5 -17 -9 -21 -9 -14 0 -29 41
-23 61 4 11 3 18 -2 17 -11 -4 -73 44 -68 52 2 4 -6 6 -19 5 -13 -2 -23 3 -23
10 0 7 11 11 28 10 15 -1 31 0 36 4 13 9 36 54 24 46 -6 -3 -11 1 -11 9 0 9
-7 16 -15 16 -8 0 -15 5 -15 12 0 7 -6 6 -17 -4 -29 -24 -47 -33 -38 -18 6 9
4 12 -7 8 -8 -4 -21 -2 -29 4 -11 8 -11 9 3 5 9 -3 19 0 21 7 5 11 67 15 129
7z m398 -1 c0 -5 -5 -10 -11 -10 -5 0 -7 5 -4 10 3 6 8 10 11 10 2 0 4 -4 4
-10z m-1975 -59 c3 -5 1 -12 -5 -16 -5 -3 -10 1 -10 9 0 18 6 21 15 7z m1985
-36 c0 -8 -2 -15 -4 -15 -2 0 -6 7 -10 15 -3 8 -1 15 4 15 6 0 10 -7 10 -15z
m-2124 -122 c-11 -11 -19 6 -11 24 8 17 8 17 12 0 3 -10 2 -21 -1 -24z m2219
27 c3 -5 1 -10 -4 -10 -6 0 -11 5 -11 10 0 6 2 10 4 10 3 0 8 -4 11 -10z m-25
-28 c0 -5 -7 -9 -15 -9 -8 0 -15 4 -15 9 0 4 7 8 15 8 8 0 15 -4 15 -8z m86
-94 c4 -7 3 -8 -4 -4 -8 5 -12 0 -12 -13 0 -12 -7 -21 -15 -21 -21 0 -19 27 3
39 21 13 20 13 28 -1z m-2276 -23 c0 -8 -4 -15 -10 -15 -5 0 -10 7 -10 15 0 8
5 15 10 15 6 0 10 -7 10 -15z m1810 -15 c0 -5 -4 -10 -10 -10 -5 0 -10 5 -10
10 0 6 5 10 10 10 6 0 10 -4 10 -10z m-1810 -74 c0 -15 -7 -26 -20 -29 -11 -3
-20 -1 -20 4 0 5 5 9 10 9 6 0 10 9 10 20 0 11 5 20 10 20 6 0 10 -11 10 -24z
m-41 -39 c11 -15 15 -16 22 -6 4 7 11 10 16 6 11 -12 -12 -23 -49 -22 -26 0
-33 4 -34 21 -1 27 26 28 45 1z m2296 -24 c-5 -77 -7 -80 -16 -43 -8 36 -4 70
10 70 4 0 7 -12 6 -27z m-2360 -1 c-3 -3 -11 0 -18 7 -9 10 -8 11 6 5 10 -3
15 -9 12 -12z m1935 -287 c0 -8 -4 -15 -10 -15 -5 0 -7 7 -4 15 4 8 8 15 10
15 2 0 4 -7 4 -15z m-70 -302 c0 -20 -16 -8 -23 17 -4 17 -3 19 9 9 8 -6 14
-18 14 -26z m496 -110 c-10 -10 -19 5 -10 18 6 11 8 11 12 0 2 -7 1 -15 -2
-18z m-364 -115 c-8 -8 -9 -4 -5 13 4 13 8 18 11 10 2 -7 -1 -18 -6 -23z m221
25 c-7 -2 -13 -13 -13 -24 0 -20 -15 -26 -25 -9 -12 19 4 40 27 39 13 0 17 -3
11 -6z m-197 -40 c-11 -11 -17 4 -9 23 7 18 8 18 11 1 2 -10 1 -21 -2 -24z
m-875 -10 c13 -16 12 -17 -3 -4 -10 7 -18 15 -18 17 0 8 8 3 21 -13z m-1040
-26 c-8 -8 -11 -7 -11 4 0 20 13 34 18 19 3 -7 -1 -17 -7 -23z m1026 -9 c-3
-8 -6 -5 -6 6 -1 11 2 17 5 13 3 -3 4 -12 1 -19z m1069 -5 c-7 -7 -26 7 -26
19 0 6 6 6 15 -2 9 -7 13 -15 11 -17z m99 10 c4 -12 -3 -26 -22 -43 -15 -14
-36 -41 -46 -60 -10 -19 -15 -27 -13 -17 4 12 1 17 -11 15 -8 -2 -17 4 -19 12
-9 45 -11 54 -7 42 3 -7 9 -10 14 -7 5 4 9 -4 9 -16 0 -21 1 -22 20 -4 11 10
20 27 20 38 0 13 5 17 15 13 9 -3 15 0 15 10 0 9 -5 12 -12 8 -9 -5 -9 -2 1 9
17 22 27 21 36 0z m-275 -68 c0 -8 -4 -15 -10 -15 -5 0 -7 7 -4 15 4 8 8 15
10 15 2 0 4 -7 4 -15z m95 -25 c-3 -5 -12 -10 -20 -10 -7 0 -15 -6 -18 -12 -2
-7 -8 -10 -12 -6 -15 14 5 38 30 38 15 0 24 -4 20 -10z m55 0 c0 -5 -4 -10 -9
-10 -6 0 -13 5 -16 10 -3 6 1 10 9 10 9 0 16 -4 16 -10z m-12 -22 c16 -16 15
-28 -2 -28 -8 0 -16 -7 -20 -15 -3 -8 -11 -13 -18 -11 -7 1 -10 1 -5 -1 16
-10 6 -24 -13 -18 -16 5 -20 2 -20 -19 0 -29 -11 -33 -30 -11 -14 17 -7 29 49
83 39 36 42 37 59 20z m-896 -21 c10 -10 23 -15 28 -12 13 8 13 -26 1 -58 -8
-22 -7 -23 15 -19 13 2 32 1 41 -3 17 -6 17 -7 0 -16 -25 -15 -80 -1 -73 18 4
9 -4 18 -25 25 -28 10 -31 14 -26 44 4 20 1 35 -6 38 -7 3 -3 4 8 3 10 -1 27
-10 37 -20z m743 -17 c3 -5 1 -10 -4 -10 -6 0 -11 5 -11 10 0 6 2 10 4 10 3 0
8 -4 11 -10z m155 -19 c0 -5 -6 -14 -14 -20 -12 -10 -13 -8 -9 8 5 21 23 30
23 12z m-1097 -47 c-3 -8 -12 -13 -20 -10 -8 3 -17 6 -19 6 -13 0 -1 19 14 23
24 5 32 -1 25 -19z m874 -18 c-4 -12 -46 -16 -53 -4 -3 4 -11 8 -17 8 -7 0 -6
-4 3 -10 12 -7 12 -12 3 -21 -10 -10 -14 -9 -19 4 -5 15 -31 17 -235 17 -126
0 -229 3 -229 8 0 4 106 7 237 7 215 -1 236 1 241 17 4 16 6 16 38 0 19 -9 33
-20 31 -26z m-696 14 c11 0 19 -7 19 -16 0 -28 -45 -13 -47 16 -1 14 0 19 3
13 3 -7 14 -13 25 -13z m-918 -38 c-4 -17 -43 -26 -43 -10 0 4 7 8 15 8 8 0
15 5 15 10 0 6 4 10 9 10 5 0 7 -8 4 -18z m1637 -6 c0 -24 -53 -76 -78 -76
-13 0 -21 4 -17 9 3 5 1 12 -5 16 -5 3 -10 14 -9 23 0 12 3 10 10 -6 12 -31
28 -20 21 14 -4 25 -3 26 22 22 14 -3 29 -1 32 3 8 14 24 10 24 -5z m-1539
-45 c-6 -10 -7 -22 -3 -26 4 -5 -1 -5 -10 -2 -12 4 -15 2 -11 -9 3 -7 0 -14
-5 -14 -23 0 -21 20 5 44 33 31 37 32 24 7z m1623 -6 c-9 -14 -18 -25 -19 -25
-7 0 1 36 10 42 21 15 25 7 9 -17z m-144 -60 c0 -17 -2 -18 -24 -9 -23 9 -20
24 4 24 11 0 20 -7 20 -15z m36 -9 c0 -13 -4 -22 -8 -19 -11 6 -10 43 1 43 5
0 8 -11 7 -24z m-51 -16 c3 -5 1 -10 -4 -10 -6 0 -11 5 -11 10 0 6 2 10 4 10
3 0 8 -4 11 -10z m-1415 -30 c8 -5 11 -10 5 -10 -5 0 -17 5 -25 10 -8 5 -10
10 -5 10 6 0 17 -5 25 -10z m869 -130 c20 0 27 -5 28 -20 1 -15 -3 -19 -20
-16 -12 2 -21 9 -19 16 2 9 -5 11 -20 6 -13 -3 -40 -6 -61 -6 -23 0 -36 -4
-32 -10 4 -6 -7 -10 -25 -10 -19 0 -29 4 -25 10 4 6 12 8 18 4 7 -3 4 1 -6 10
-18 14 -17 15 15 19 18 3 53 3 77 1 24 -2 56 -4 70 -4z m235 -7 c4 -9 1 -21
-5 -27 -9 -8 -10 -8 -5 2 5 7 1 12 -9 12 -9 0 -14 4 -11 9 3 5 -15 3 -40 -5
-34 -10 -44 -10 -42 -2 9 27 103 36 112 11z m36 7 c-19 -13 -30 -13 -30 0 0 6
10 10 23 10 18 0 19 -2 7 -10z"/>
<path d="M2215 2840 c4 -6 11 -8 16 -5 14 9 11 15 -7 15 -8 0 -12 -5 -9 -10z"/>
<path d="M1980 2820 c0 -5 9 -10 20 -10 11 0 20 5 20 10 0 6 -9 10 -20 10 -11
0 -20 -4 -20 -10z"/>
<path d="M2660 2595 c-7 -8 -16 -12 -21 -9 -5 3 -6 -3 -2 -12 5 -13 3 -15 -7
-9 -9 5 -11 4 -6 -4 4 -6 11 -9 16 -6 11 7 32 -20 22 -29 -4 -4 0 -6 8 -4 11
2 15 -5 15 -26 0 -16 6 -31 13 -33 14 -5 16 13 2 22 -7 4 -6 13 1 27 8 15 8
19 0 14 -14 -9 -14 -3 0 28 9 20 9 29 -1 41 -16 19 -24 19 -40 0z m26 -31 c15
6 16 4 7 -5 -14 -14 -43 -5 -43 13 0 10 3 9 9 -1 6 -9 16 -11 27 -7z"/>
<path d="M2094 1189 c-3 -6 -1 -16 5 -22 15 -15 43 -18 38 -4 -2 7 -11 11 -20
11 -9 -1 -13 4 -10 12 6 17 -3 19 -13 3z"/>
<path d="M2320 3180 c8 -5 22 -10 30 -10 13 0 13 1 0 10 -8 5 -22 10 -30 10
-13 0 -13 -1 0 -10z"/>
<path d="M2414 3148 c-3 -4 -1 -8 5 -8 5 0 17 -3 27 -7 12 -4 15 -3 10 5 -13
22 6 12 31 -14 13 -14 27 -23 30 -20 4 4 -6 16 -21 29 -27 22 -73 30 -82 15z"/>
<path d="M1565 3130 c-3 -6 1 -7 9 -4 18 7 21 14 7 14 -6 0 -13 -4 -16 -10z"/>
<path d="M2455 3110 c3 -5 8 -10 11 -10 2 0 4 5 4 10 0 6 -5 10 -11 10 -5 0
-7 -4 -4 -10z"/>
<path d="M2533 3103 c-4 -10 -1 -19 6 -21 11 -4 11 -6 0 -14 -11 -7 -9 -8 6
-6 13 2 20 11 21 26 1 18 -1 20 -13 11 -11 -9 -12 -9 -7 5 3 9 3 16 0 16 -4 0
-10 -8 -13 -17z"/>
<path d="M2580 3090 c0 -5 5 -10 11 -10 5 0 7 5 4 10 -3 6 -8 10 -11 10 -2 0
-4 -4 -4 -10z"/>
<path d="M2760 2996 c0 -2 7 -7 16 -10 8 -3 12 -2 9 4 -6 10 -25 14 -25 6z"/>
<path d="M2760 2970 c0 -5 5 -10 11 -10 5 0 7 5 4 10 -3 6 -8 10 -11 10 -2 0
-4 -4 -4 -10z"/>
<path d="M2760 2879 c0 -5 5 -7 10 -4 6 3 10 8 10 11 0 2 -4 4 -10 4 -5 0 -10
-5 -10 -11z"/>
<path d="M2996 2787 c3 -10 9 -15 12 -12 3 3 0 11 -7 18 -10 9 -11 8 -5 -6z"/>
<path d="M1125 2757 c-11 -11 -15 -17 -9 -14 7 4 15 0 18 -9 5 -12 13 -14 34
-9 15 4 35 7 45 7 28 -1 19 13 -10 16 -14 1 -34 8 -42 16 -14 12 -19 11 -36
-7z"/>
<path d="M1263 2735 c0 -13 51 -15 405 -14 223 1 412 3 419 6 30 12 0 19 -49
12 -83 -12 -760 -11 -753 1 3 6 0 10 -8 10 -7 0 -14 -7 -14 -15z"/>
<path d="M994 2688 c-13 -14 -14 -19 -4 -14 8 4 2 -4 -13 -18 -15 -14 -26 -26
-23 -26 10 0 56 23 57 29 3 24 5 51 4 51 -1 0 -10 -10 -21 -22z"/>
<path d="M2370 2669 c0 -5 5 -7 10 -4 6 3 10 2 10 -3 0 -5 7 -9 16 -9 14 0 14
2 -2 14 -22 16 -34 17 -34 2z"/>
<path d="M2465 2631 c-3 -5 -2 -12 3 -15 5 -3 9 1 9 9 0 17 -3 19 -12 6z"/>
<path d="M3146 2554 c-8 -22 1 -31 16 -16 9 9 9 15 1 23 -7 7 -12 5 -17 -7z"/>
<path d="M905 2360 c-3 -5 -1 -10 4 -10 6 0 11 5 11 10 0 6 -2 10 -4 10 -3 0
-8 -4 -11 -10z"/>
<path d="M2776 2234 c-8 -22 -7 -49 2 -40 4 4 7 11 7 14 0 4 4 12 8 19 4 6 3
14 -2 17 -5 3 -12 -1 -15 -10z"/>
<path d="M1873 2232 c-8 -5 -9 -13 -3 -22 13 -20 13 -147 0 -155 -5 -3 -10
-12 -10 -18 0 -8 3 -8 8 -2 9 14 144 16 163 3 11 -8 11 -9 -3 -4 -10 3 -20 1
-23 -5 -10 -15 64 -7 77 8 5 7 14 10 19 7 5 -3 8 -2 7 3 -1 4 3 18 10 30 10
17 9 22 -6 29 -9 4 -20 7 -24 6 -3 -1 -5 13 -2 30 5 44 -19 68 -68 68 -27 0
-38 4 -38 15 0 12 -7 14 -27 9 -16 -4 -32 -11 -37 -15 -14 -12 -36 -11 -36 2
0 5 5 7 12 3 7 -4 8 -3 4 4 -8 14 -8 14 -23 4z m80 -19 c-7 -2 -19 -2 -25 0
-7 3 -2 5 12 5 14 0 19 -2 13 -5z m148 -142 c-16 -30 -38 -44 -47 -30 -4 8 -3
9 4 5 7 -4 12 -1 12 9 0 10 5 13 12 9 7 -5 9 -2 5 8 -6 18 1 30 14 22 5 -3 5
-13 0 -23z"/>
<path d="M1995 2230 c3 -5 11 -10 16 -10 6 0 7 5 4 10 -3 6 -11 10 -16 10 -6
0 -7 -4 -4 -10z"/>
<path d="M2871 2224 c0 -11 3 -14 6 -6 3 7 2 16 -1 19 -3 4 -6 -2 -5 -13z"/>
<path d="M3263 2224 c18 -6 23 -39 7 -49 -5 -3 -10 -17 -10 -31 0 -13 -5 -24
-12 -24 -6 0 -3 -8 7 -20 10 -11 15 -28 12 -39 -3 -12 1 -22 9 -25 8 -3 14
-12 14 -21 0 -8 5 -15 11 -15 6 0 8 7 5 15 -3 8 -9 22 -12 30 -3 8 -1 15 5 15
6 0 11 10 10 23 0 17 -2 18 -7 6 -6 -14 -9 -15 -19 -3 -7 7 -9 15 -5 18 5 3 8
31 8 63 -1 50 -4 58 -21 60 -16 1 -16 1 -2 -3z"/>
<path d="M2090 2190 c6 -10 9 -29 7 -41 -1 -12 4 -24 11 -26 7 -3 12 4 12 17
0 13 4 19 12 14 7 -4 8 -3 4 5 -4 6 -11 9 -16 6 -4 -3 -10 2 -13 10 -4 10 -1
12 10 8 10 -4 14 -2 10 4 -4 6 -16 13 -27 16 -16 4 -18 2 -10 -13z"/>
<path d="M2815 2183 c-5 -12 -9 -14 -12 -5 -5 13 -23 7 -23 -9 0 -6 5 -7 10
-4 13 8 13 -1 -1 -27 -9 -16 -8 -19 1 -13 13 8 12 -1 -5 -62 -3 -10 1 -6 8 9
10 22 16 25 25 16 9 -9 12 -9 12 -1 0 7 -4 15 -10 18 -10 6 -7 48 5 78 4 9 5
17 2 17 -3 0 -8 -8 -12 -17z"/>
<path d="M777 2143 c-10 -9 -9 -23 1 -23 5 0 9 7 9 15 0 17 -1 18 -10 8z"/>
<path d="M3302 2130 c0 -14 2 -19 5 -12 2 6 2 18 0 25 -3 6 -5 1 -5 -13z"/>
<path d="M1900 2031 c0 -5 5 -13 10 -16 6 -3 10 -2 10 4 0 5 -4 13 -10 16 -5
3 -10 2 -10 -4z"/>
<path d="M1958 2023 c6 -2 18 -2 25 0 6 3 1 5 -13 5 -14 0 -19 -2 -12 -5z"/>
<path d="M3266 1991 c-4 -6 -4 -26 0 -44 l7 -32 8 29 c9 32 -3 67 -15 47z"/>
<path d="M2833 1959 c-8 -21 -9 -37 -3 -43 12 -12 22 14 18 49 l-3 28 -12 -34z"/>
<path d="M752 1935 c0 -16 2 -22 5 -12 2 9 2 23 0 30 -3 6 -5 -1 -5 -18z"/>
<path d="M766 1895 c-3 -9 -6 -22 -5 -28 0 -7 5 -1 10 12 5 13 8 26 5 28 -2 2
-6 -3 -10 -12z"/>
<path d="M3280 1883 c0 -15 2 -16 10 -3 8 12 10 11 10 -7 0 -13 5 -23 11 -23
6 0 9 10 7 22 -4 28 -38 38 -38 11z"/>
<path d="M2691 1826 c-8 -10 -9 -16 -1 -21 5 -3 10 1 10 10 0 10 5 13 12 9 7
-4 8 -3 4 4 -9 15 -11 15 -25 -2z"/>
<path d="M3275 1650 c3 -5 8 -10 11 -10 2 0 4 5 4 10 0 6 -5 10 -11 10 -5 0
-7 -4 -4 -10z"/>
<path d="M3235 1620 c3 -5 8 -10 11 -10 2 0 4 5 4 10 0 6 -5 10 -11 10 -5 0
-7 -4 -4 -10z"/>
<path d="M3257 1606 c-4 -15 -6 -31 -2 -34 10 -10 16 6 13 35 l-3 28 -8 -29z"/>
<path d="M2680 1581 c0 -5 7 -12 16 -15 14 -5 15 -4 4 9 -14 17 -20 19 -20 6z"/>
<path d="M836 1544 c-4 -11 1 -24 14 -36 16 -15 18 -23 10 -33 -8 -9 -8 -15 0
-20 5 -3 10 -17 10 -31 0 -13 5 -24 11 -24 5 0 7 5 4 10 -3 6 -1 10 4 10 6 0
12 -10 12 -22 1 -19 2 -20 6 -5 3 14 11 17 26 13 21 -5 21 -4 3 9 -10 8 -23
16 -27 17 -5 2 -10 22 -12 45 -3 37 -1 41 12 30 14 -11 14 -10 2 6 -17 21 -31
22 -31 1 0 -8 -5 -12 -11 -8 -6 3 -8 18 -5 33 3 14 3 20 -1 12 -4 -10 -7 -10
-13 -1 -5 8 -9 7 -14 -6z m54 -84 c0 -5 -4 -10 -10 -10 -5 0 -10 5 -10 10 0 6
5 10 10 10 6 0 10 -4 10 -10z"/>
<path d="M2628 1530 c-5 -36 -1 -39 12 -7 l9 22 7 -22 c3 -13 11 -20 18 -16 6
3 8 3 4 -2 -4 -4 -3 -17 3 -27 9 -16 8 -19 -3 -15 -7 2 -12 10 -10 16 1 6 -6
11 -15 11 -14 0 -12 -5 8 -27 13 -16 38 -41 54 -56 17 -16 25 -26 18 -23 -6 4
-15 1 -19 -5 -4 -7 -3 -9 4 -5 5 3 12 0 15 -6 3 -8 8 -4 14 10 8 21 11 22 22
8 13 -16 6 -40 -9 -31 -5 3 -12 0 -16 -6 -4 -7 -3 -9 4 -5 6 3 13 -3 17 -14 5
-16 12 -19 28 -14 12 4 25 11 29 17 8 13 -13 47 -30 47 -7 0 -10 5 -6 12 4 7
3 8 -4 4 -7 -4 -12 -2 -12 5 0 6 -8 9 -20 6 -21 -5 -45 16 -36 32 4 5 1 13 -5
16 -5 4 -8 14 -5 22 3 8 1 11 -4 8 -6 -3 -10 -1 -10 5 0 13 -41 70 -51 70 -4
0 -9 -13 -11 -30z m77 -79 c3 -5 2 -12 -3 -15 -5 -3 -9 1 -9 9 0 17 3 19 12 6z
m85 -122 c0 -6 -4 -7 -10 -4 -5 3 -10 11 -10 16 0 6 5 7 10 4 6 -3 10 -11 10
-16z"/>
<path d="M934 1476 c-10 -8 -16 -18 -11 -22 4 -4 7 -2 7 4 0 6 7 9 15 6 9 -4
15 0 15 10 0 20 -1 20 -26 2z"/>
<path d="M1877 1458 c-2 -7 -2 -58 1 -114 3 -75 8 -101 18 -101 7 0 11 4 9 8
-3 4 2 9 10 13 8 3 15 11 15 18 0 9 -3 8 -10 -2 -7 -10 -10 -11 -10 -2 0 7 7
15 15 18 21 8 19 37 -5 79 -11 19 -17 35 -13 35 3 0 -1 8 -10 18 -13 14 -14
21 -5 30 8 8 8 12 1 12 -6 0 -13 -6 -16 -12z"/>
<path d="M1950 1456 c0 -2 7 -7 16 -10 8 -3 12 -2 9 4 -6 10 -25 14 -25 6z"/>
<path d="M906 1369 c-12 -11 -15 -19 -7 -19 13 0 41 24 41 34 0 11 -15 5 -34
-15z"/>
<path d="M2815 1300 c3 -5 10 -10 16 -10 5 0 9 5 9 10 0 6 -7 10 -16 10 -8 0
-12 -4 -9 -10z"/>
<path d="M1855 1191 c-3 -5 -2 -12 3 -15 5 -3 9 1 9 9 0 17 -3 19 -12 6z"/>
<path d="M1792 1161 c7 -11 15 -18 20 -15 11 7 -3 34 -18 34 -12 0 -12 -4 -2
-19z"/>
<path d="M2210 1169 c0 -15 57 -19 273 -19 133 0 227 4 227 9 0 5 8 11 17 13
9 2 -104 3 -250 3 -147 0 -267 -3 -267 -6z"/>
<path d="M1060 1152 c-18 -20 -9 -20 30 -1 32 16 33 17 9 16 -15 -1 -32 -8
-39 -15z"/>
<path d="M1123 1145 c-8 -9 -9 -16 -3 -20 6 -3 13 1 16 10 9 21 2 26 -13 10z"/>
<path d="M1075 1131 c-3 -5 -1 -12 5 -16 5 -3 10 1 10 9 0 18 -6 21 -15 7z"/>
<path d="M1100 1110 c0 -5 5 -10 11 -10 5 0 7 5 4 10 -3 6 -8 10 -11 10 -2 0
-4 -4 -4 -10z"/>
<path d="M2850 949 c0 -5 5 -7 10 -4 6 3 10 8 10 11 0 2 -4 4 -10 4 -5 0 -10
-5 -10 -11z"/>
<path d="M2640 879 c0 -18 21 -30 60 -35 19 -2 18 0 -8 9 -18 7 -37 19 -42 27
-8 13 -10 13 -10 -1z"/>
<path d="M2649 836 c13 -16 13 -18 0 -16 -28 4 -37 0 -42 -22 -5 -21 -5 -21 7
-5 7 9 19 17 27 17 30 0 39 15 16 29 -20 13 -21 13 -8 -3z"/>
<path d="M2568 823 c6 -2 18 -2 25 0 6 3 1 5 -13 5 -14 0 -19 -2 -12 -5z"/>
<path d="M1900 689 c0 -5 -4 -8 -9 -5 -5 3 -14 0 -20 -8 -9 -10 -5 -13 18 -12
18 1 27 5 24 14 -4 8 1 10 13 6 16 -5 16 -4 4 5 -19 14 -30 14 -30 0z"/>
<path d="M2305 690 c-3 -5 -2 -10 4 -10 5 0 13 5 16 10 3 6 2 10 -4 10 -5 0
-13 -4 -16 -10z"/>
<path d="M1945 670 c-3 -5 -2 -10 4 -10 5 0 13 5 16 10 3 6 2 10 -4 10 -5 0
-13 -4 -16 -10z"/>
<path d="M1988 663 c7 -3 16 -2 19 1 4 3 -2 6 -13 5 -11 0 -14 -3 -6 -6z"/>
</g>
</svg>
